#N canvas 615 22 547 208 12;
#X obj 21 116 osc~ 444;
#X obj 21 175 *~;
#X obj 21 234 dac~;
#X obj 20 16 r midinote;
#X obj 20 81 mtof;
#X obj 144 183 vline~;
#X msg 144 149 0 \, 1 50 \, 0 50 50;
#X obj 20 45 t f b;
#X text 112 16 In c++ a message is sent like this pd.sendFloat("midinote"
\, random(48 \, 72)) \; ;
#X connect 0 0 1 0;
#X connect 1 0 2 0;
#X connect 1 0 2 1;
#X connect 3 0 7 0;
#X connect 4 0 0 0;
#X connect 5 0 1 1;
#X connect 6 0 5 0;
#X connect 7 0 4 0;
#X connect 7 1 6 0;
